<mxfile modified="2021-03-22T12:10:24.572Z" host="app.diagrams.net" agent="5.0 (Windows NT 10.0; Win64; x64) AppleWebKit/537.36 (KHTML, like Gecko) Chrome/89.0.4389.90 Safari/537.36 Edg/89.0.774.54" etag="PfVMndKtwJ_KzJVkLr8M" version="14.4.9" type="github">
  <diagram id="f106602c-feb2-e66a-4537-3a34d633f6aa" name="Page-1">
    <mxGraphModel dx="1038" dy="548" grid="1" gridSize="10" guides="1" tooltips="1" connect="1" arrows="1" fold="1" page="1" pageScale="1" pageWidth="1169" pageHeight="827" background="#ffffff" math="0" shadow="0">
      <root>
        <mxCell id="0" />
        <mxCell id="1" parent="0" />
        <mxCell id="14" value="&lt;span style=&quot;color: rgba(0 , 0 , 0 , 0) ; font-family: monospace ; font-size: 0px&quot;&gt;%3CmxGraphModel%3E%3Croot%3E%3CmxCell%20id%3D%220%22%2F%3E%3CmxCell%20id%3D%221%22%20parent%3D%220%22%2F%3E%3CmxCell%20id%3D%222%22%20value%3D%22%22%20style%3D%22strokeColor%3D%23dddddd%3BfillColor%3D%23ffffff%3Bshadow%3D1%3BstrokeWidth%3D1%3Brounded%3D1%3BabsoluteArcSize%3D1%3BarcSize%3D2%3BfontSize%3D10%3BfontColor%3D%239E9E9E%3Balign%3Dcenter%3Bhtml%3D1%3B%22%20vertex%3D%221%22%20parent%3D%221%22%3E%3CmxGeometry%20x%3D%22390%22%20y%3D%22370%22%20width%3D%22180%22%20height%3D%2260%22%20as%3D%22geometry%22%2F%3E%3C%2FmxCell%3E%3CmxCell%20id%3D%223%22%20value%3D%22%26lt%3Bfont%20color%3D%26quot%3B%23000000%26quot%3B%26gt%3BJob%20Orchestrator%26lt%3Bbr%26gt%3B%26lt%3B%2Ffont%26gt%3BCloud%20Storage%22%20style%3D%22dashed%3D0%3Bconnectable%3D0%3Bhtml%3D1%3BfillColor%3D%235184F3%3BstrokeColor%3Dnone%3Bshape%3Dmxgraph.gcp2.hexIcon%3BprIcon%3Dcloud_storage%3Bpart%3D1%3BlabelPosition%3Dright%3BverticalLabelPosition%3Dmiddle%3Balign%3Dleft%3BverticalAlign%3Dmiddle%3BspacingLeft%3D5%3BfontColor%3D%23999999%3BfontSize%3D12%3B%22%20vertex%3D%221%22%20parent%3D%222%22%3E%3CmxGeometry%20y%3D%220.5%22%20width%3D%2244%22%20height%3D%2239%22%20relative%3D%221%22%20as%3D%22geometry%22%3E%3CmxPoint%20x%3D%225%22%20y%3D%22-19.5%22%20as%3D%22offset%22%2F%3E%3C%2FmxGeometry%3E%3C%2FmxCell%3E%3C%2Froot%3E%3C%2FmxGraphModel%3E&lt;/span&gt;" style="fillColor=#F6F6F6;strokeColor=none;shadow=0;gradientColor=none;fontSize=14;align=left;spacing=10;fontColor=#717171;9E9E9E;verticalAlign=top;spacingTop=-4;fontStyle=0;spacingLeft=40;html=1;" parent="1" vertex="1">
          <mxGeometry x="70" y="150" width="670" height="520" as="geometry" />
        </mxCell>
        <mxCell id="711" value="&lt;br&gt;&lt;br&gt;K8S" style="rounded=1;absoluteArcSize=1;arcSize=2;html=1;strokeColor=none;gradientColor=none;shadow=0;dashed=0;strokeColor=none;fontSize=12;fontColor=#9E9E9E;align=left;verticalAlign=top;spacing=10;spacingTop=-4;fillColor=#E1F5FE;" parent="1" vertex="1">
          <mxGeometry x="80" y="290" width="280" height="290" as="geometry" />
        </mxCell>
        <mxCell id="2" value="Component Overview" style="fillColor=#4DA1F5;strokeColor=none;shadow=1;gradientColor=none;fontSize=14;align=left;spacingLeft=50;fontColor=#ffffff;html=1;" parent="1" vertex="1">
          <mxGeometry x="70" y="90" width="670" height="40" as="geometry" />
        </mxCell>
        <mxCell id="697" value="" style="strokeColor=#dddddd;fillColor=#ffffff;shadow=1;strokeWidth=1;rounded=1;absoluteArcSize=1;arcSize=2;fontSize=10;fontColor=#9E9E9E;align=center;html=1;" parent="1" vertex="1">
          <mxGeometry x="88.5" y="370" width="191.5" height="80" as="geometry" />
        </mxCell>
        <mxCell id="698" value="&lt;font color=&quot;#000000&quot;&gt;&lt;font style=&quot;font-size: 12px&quot;&gt;&lt;b&gt;Transformer service&amp;nbsp;&lt;br&gt;&lt;/b&gt;&lt;/font&gt;Audit log&lt;br&gt;Throttling&lt;br&gt;Error handling&lt;br&gt;Pipeline&lt;br&gt;&lt;/font&gt;" style="dashed=0;connectable=0;html=1;fillColor=#5184F3;strokeColor=none;shape=mxgraph.gcp2.hexIcon;prIcon=cloud_storage;part=1;labelPosition=right;verticalLabelPosition=middle;align=left;verticalAlign=middle;spacingLeft=5;fontColor=#999999;fontSize=12;" parent="697" vertex="1">
          <mxGeometry y="0.5" width="60" height="30" relative="1" as="geometry">
            <mxPoint x="5" y="-10.5" as="offset" />
          </mxGeometry>
        </mxCell>
        <mxCell id="sCyOnHdx_f6JQvQr4W9k-722" value="" style="html=1;strokeColor=none;fillColor=#0079D6;labelPosition=center;verticalLabelPosition=middle;verticalAlign=top;align=center;fontSize=12;outlineConnect=0;spacingTop=-6;fontColor=#FFFFFF;shape=mxgraph.sitemap.services;" vertex="1" parent="697">
          <mxGeometry x="10.078947368421051" y="22.857142857142854" width="40.315789473684205" height="34.285714285714285" as="geometry" />
        </mxCell>
        <mxCell id="sCyOnHdx_f6JQvQr4W9k-720" value="" style="aspect=fixed;html=1;points=[];align=center;image;fontSize=12;image=img/lib/azure2/containers/Kubernetes_Services.svg;" vertex="1" parent="1">
          <mxGeometry x="88.5" y="300" width="22.67" height="20" as="geometry" />
        </mxCell>
        <mxCell id="sCyOnHdx_f6JQvQr4W9k-724" value="" style="aspect=fixed;html=1;points=[];align=center;image;fontSize=12;image=img/lib/azure2/iot/Event_Hubs.svg;" vertex="1" parent="1">
          <mxGeometry x="520" y="220" width="67" height="60" as="geometry" />
        </mxCell>
        <mxCell id="sCyOnHdx_f6JQvQr4W9k-726" style="edgeStyle=orthogonalEdgeStyle;rounded=0;html=1;labelBackgroundColor=none;startFill=1;startSize=4;endArrow=blockThin;endFill=1;endSize=4;jettySize=auto;orthogonalLoop=1;strokeColor=#4284F3;strokeWidth=2;fontSize=12;fontColor=#000000;align=center;dashed=0;" edge="1" parent="1" source="sCyOnHdx_f6JQvQr4W9k-724">
          <mxGeometry relative="1" as="geometry">
            <Array as="points">
              <mxPoint x="184" y="250" />
            </Array>
            <mxPoint x="330" y="420" as="sourcePoint" />
            <mxPoint x="184" y="370" as="targetPoint" />
          </mxGeometry>
        </mxCell>
        <mxCell id="sCyOnHdx_f6JQvQr4W9k-756" style="edgeStyle=orthogonalEdgeStyle;rounded=0;orthogonalLoop=1;jettySize=auto;html=1;entryX=0.484;entryY=0.957;entryDx=0;entryDy=0;entryPerimeter=0;" edge="1" parent="1" source="sCyOnHdx_f6JQvQr4W9k-728" target="sCyOnHdx_f6JQvQr4W9k-724">
          <mxGeometry relative="1" as="geometry">
            <Array as="points">
              <mxPoint x="552" y="535" />
            </Array>
          </mxGeometry>
        </mxCell>
        <mxCell id="sCyOnHdx_f6JQvQr4W9k-728" value="transformer dbx gold job" style="aspect=fixed;html=1;points=[];align=center;image;fontSize=12;image=img/lib/mscae/Databricks.svg;" vertex="1" parent="1">
          <mxGeometry x="427" y="511" width="50" height="48" as="geometry" />
        </mxCell>
        <mxCell id="sCyOnHdx_f6JQvQr4W9k-735" value="" style="strokeColor=#dddddd;fillColor=#ffffff;shadow=1;strokeWidth=1;rounded=1;absoluteArcSize=1;arcSize=2;fontSize=10;fontColor=#9E9E9E;align=center;html=1;" vertex="1" parent="1">
          <mxGeometry x="88.5" y="500" width="191.5" height="70" as="geometry" />
        </mxCell>
        <mxCell id="sCyOnHdx_f6JQvQr4W9k-736" value="&lt;font color=&quot;#000000&quot;&gt;&lt;b&gt;Platform &lt;br&gt;Job Orchestrator&lt;/b&gt;&lt;br&gt;&lt;/font&gt;" style="dashed=0;connectable=0;html=1;fillColor=#5184F3;strokeColor=none;shape=mxgraph.gcp2.hexIcon;prIcon=cloud_storage;part=1;labelPosition=right;verticalLabelPosition=middle;align=left;verticalAlign=middle;spacingLeft=5;fontColor=#999999;fontSize=12;" vertex="1" parent="sCyOnHdx_f6JQvQr4W9k-735">
          <mxGeometry y="0.5" width="44" height="39" relative="1" as="geometry">
            <mxPoint x="5" y="-19.5" as="offset" />
          </mxGeometry>
        </mxCell>
        <mxCell id="sCyOnHdx_f6JQvQr4W9k-737" value="" style="html=1;strokeColor=none;fillColor=#0079D6;labelPosition=center;verticalLabelPosition=middle;verticalAlign=top;align=center;fontSize=12;outlineConnect=0;spacingTop=-6;fontColor=#FFFFFF;shape=mxgraph.sitemap.services;" vertex="1" parent="sCyOnHdx_f6JQvQr4W9k-735">
          <mxGeometry x="10.078947368421053" y="20" width="40.31578947368421" height="30" as="geometry" />
        </mxCell>
        <mxCell id="sCyOnHdx_f6JQvQr4W9k-738" style="edgeStyle=orthogonalEdgeStyle;rounded=0;html=1;labelBackgroundColor=none;startFill=1;startSize=4;endArrow=blockThin;endFill=1;endSize=4;jettySize=auto;orthogonalLoop=1;strokeColor=#4284F3;strokeWidth=2;fontSize=12;fontColor=#000000;align=center;dashed=0;exitX=0.5;exitY=1;exitDx=0;exitDy=0;entryX=0.5;entryY=0;entryDx=0;entryDy=0;" edge="1" parent="1" source="697" target="sCyOnHdx_f6JQvQr4W9k-735">
          <mxGeometry relative="1" as="geometry">
            <Array as="points" />
            <mxPoint x="310" y="356.11" as="sourcePoint" />
            <mxPoint x="184" y="470" as="targetPoint" />
          </mxGeometry>
        </mxCell>
        <mxCell id="sCyOnHdx_f6JQvQr4W9k-739" value="" style="aspect=fixed;html=1;points=[];align=center;image;fontSize=12;image=img/lib/mscae/BlobBlock.svg;" vertex="1" parent="1">
          <mxGeometry x="427" y="320" width="50" height="42" as="geometry" />
        </mxCell>
        <mxCell id="sCyOnHdx_f6JQvQr4W9k-740" value="Delta lake / silver/ curated gold" style="aspect=fixed;html=1;points=[];align=center;image;fontSize=12;image=img/lib/mscae/Data_Lake.svg;" vertex="1" parent="1">
          <mxGeometry x="585" y="400" width="120.84" height="159" as="geometry" />
        </mxCell>
        <mxCell id="sCyOnHdx_f6JQvQr4W9k-741" style="edgeStyle=orthogonalEdgeStyle;rounded=0;html=1;labelBackgroundColor=none;startFill=1;startSize=4;endArrow=blockThin;endFill=1;endSize=4;jettySize=auto;orthogonalLoop=1;strokeColor=#4284F3;strokeWidth=2;fontSize=12;fontColor=#000000;align=center;dashed=0;exitX=1;exitY=0.5;exitDx=0;exitDy=0;" edge="1" parent="1" source="697">
          <mxGeometry relative="1" as="geometry">
            <Array as="points">
              <mxPoint x="280" y="405" />
              <mxPoint x="390" y="405" />
              <mxPoint x="390" y="350" />
            </Array>
            <mxPoint x="370" y="374.11" as="sourcePoint" />
            <mxPoint x="430" y="350" as="targetPoint" />
          </mxGeometry>
        </mxCell>
        <mxCell id="sCyOnHdx_f6JQvQr4W9k-746" style="edgeStyle=orthogonalEdgeStyle;rounded=0;html=1;labelBackgroundColor=none;startFill=1;startSize=4;endArrow=blockThin;endFill=1;endSize=4;jettySize=auto;orthogonalLoop=1;strokeColor=#4284F3;strokeWidth=2;fontSize=12;fontColor=#000000;align=center;dashed=0;exitX=1;exitY=0.5;exitDx=0;exitDy=0;entryX=0.104;entryY=0.517;entryDx=0;entryDy=0;entryPerimeter=0;" edge="1" parent="1" source="sCyOnHdx_f6JQvQr4W9k-735" target="sCyOnHdx_f6JQvQr4W9k-728">
          <mxGeometry relative="1" as="geometry">
            <Array as="points" />
            <mxPoint x="193.5" y="450" as="sourcePoint" />
            <mxPoint x="194.25" y="510" as="targetPoint" />
          </mxGeometry>
        </mxCell>
        <mxCell id="sCyOnHdx_f6JQvQr4W9k-748" style="edgeStyle=orthogonalEdgeStyle;rounded=0;html=1;labelBackgroundColor=none;startFill=1;startSize=4;endArrow=blockThin;endFill=1;endSize=4;jettySize=auto;orthogonalLoop=1;strokeColor=#4284F3;strokeWidth=2;fontSize=12;fontColor=#000000;align=center;dashed=0;exitX=0.984;exitY=0.567;exitDx=0;exitDy=0;exitPerimeter=0;" edge="1" parent="1" source="sCyOnHdx_f6JQvQr4W9k-728">
          <mxGeometry relative="1" as="geometry">
            <Array as="points">
              <mxPoint x="531" y="538" />
              <mxPoint x="531" y="510" />
              <mxPoint x="582" y="510" />
            </Array>
            <mxPoint x="290" y="545" as="sourcePoint" />
            <mxPoint x="581" y="510" as="targetPoint" />
          </mxGeometry>
        </mxCell>
        <mxCell id="sCyOnHdx_f6JQvQr4W9k-755" style="edgeStyle=orthogonalEdgeStyle;rounded=0;orthogonalLoop=1;jettySize=auto;html=1;entryX=0.484;entryY=0.97;entryDx=0;entryDy=0;entryPerimeter=0;" edge="1" parent="1" source="sCyOnHdx_f6JQvQr4W9k-751" target="sCyOnHdx_f6JQvQr4W9k-724">
          <mxGeometry relative="1" as="geometry" />
        </mxCell>
        <mxCell id="sCyOnHdx_f6JQvQr4W9k-751" value="transformer dbx silver job" style="aspect=fixed;html=1;points=[];align=center;image;fontSize=12;image=img/lib/mscae/Databricks.svg;" vertex="1" parent="1">
          <mxGeometry x="427" y="420" width="50" height="48" as="geometry" />
        </mxCell>
        <mxCell id="sCyOnHdx_f6JQvQr4W9k-752" style="edgeStyle=orthogonalEdgeStyle;rounded=0;html=1;labelBackgroundColor=none;startFill=1;startSize=4;endArrow=blockThin;endFill=1;endSize=4;jettySize=auto;orthogonalLoop=1;strokeColor=#4284F3;strokeWidth=2;fontSize=12;fontColor=#000000;align=center;dashed=0;entryX=-0.008;entryY=0.629;entryDx=0;entryDy=0;entryPerimeter=0;" edge="1" parent="1" target="sCyOnHdx_f6JQvQr4W9k-751">
          <mxGeometry relative="1" as="geometry">
            <Array as="points">
              <mxPoint x="373" y="530" />
              <mxPoint x="373" y="450" />
            </Array>
            <mxPoint x="373" y="530" as="sourcePoint" />
            <mxPoint x="415.20000000000005" y="545.816" as="targetPoint" />
          </mxGeometry>
        </mxCell>
        <mxCell id="sCyOnHdx_f6JQvQr4W9k-753" style="edgeStyle=orthogonalEdgeStyle;rounded=0;html=1;labelBackgroundColor=none;startFill=1;startSize=4;endArrow=blockThin;endFill=1;endSize=4;jettySize=auto;orthogonalLoop=1;strokeColor=#4284F3;strokeWidth=2;fontSize=12;fontColor=#000000;align=center;dashed=0;exitX=1.116;exitY=0.563;exitDx=0;exitDy=0;exitPerimeter=0;entryX=0.012;entryY=0.459;entryDx=0;entryDy=0;entryPerimeter=0;" edge="1" parent="1" source="sCyOnHdx_f6JQvQr4W9k-751" target="sCyOnHdx_f6JQvQr4W9k-740">
          <mxGeometry relative="1" as="geometry">
            <Array as="points" />
            <mxPoint x="486.20000000000005" y="548.2159999999999" as="sourcePoint" />
            <mxPoint x="540" y="540" as="targetPoint" />
          </mxGeometry>
        </mxCell>
      </root>
    </mxGraphModel>
  </diagram>
</mxfile>
